<?xml version="1.0" encoding="UTF-8" standalone="no"?>
<!-- Created with Inkscape (http://www.inkscape.org/) -->

<svg
   xmlns:dc="http://purl.org/dc/elements/1.1/"
   xmlns:cc="http://creativecommons.org/ns#"
   xmlns:rdf="http://www.w3.org/1999/02/22-rdf-syntax-ns#"
   xmlns:svg="http://www.w3.org/2000/svg"
   xmlns="http://www.w3.org/2000/svg"
   xmlns:sodipodi="http://sodipodi.sourceforge.net/DTD/sodipodi-0.dtd"
   xmlns:inkscape="http://www.inkscape.org/namespaces/inkscape"
   width="512"
   height="256"
   id="svg5104"
   version="1.1"
   inkscape:version="0.48.4 r9939"
   sodipodi:docname="bitcoindark-logo-dark-h.svg"
   inkscape:export-filename="/home/gabo/Dokumenty/Graphics/btcd/bitcoindark-logo-dark-h.png"
   inkscape:export-xdpi="90"
   inkscape:export-ydpi="90">
  <defs
     id="defs5106" />
  <sodipodi:namedview
     id="base"
     pagecolor="#ffffff"
     bordercolor="#666666"
     borderopacity="1.0"
     inkscape:pageopacity="0.0"
     inkscape:pageshadow="2"
     inkscape:zoom="0.98994949"
     inkscape:cx="395.99404"
     inkscape:cy="66.671412"
     inkscape:document-units="px"
     inkscape:current-layer="g4548"
     showgrid="false"
     inkscape:window-width="1855"
     inkscape:window-height="1176"
     inkscape:window-x="65"
     inkscape:window-y="24"
     inkscape:window-maximized="1" />
  <metadata
     id="metadata5109">
    <rdf:RDF>
      <cc:Work
         rdf:about="">
        <dc:format>image/svg+xml</dc:format>
        <dc:type
           rdf:resource="http://purl.org/dc/dcmitype/StillImage" />
        <dc:title></dc:title>
      </cc:Work>
    </rdf:RDF>
  </metadata>
  <g
     inkscape:label="Vrstva 1"
     inkscape:groupmode="layer"
     id="layer1"
     transform="translate(0,-796.36218)">
    <g
       id="g4548"
       transform="matrix(2.2377896,0,0,2.2377896,-122.29057,-693.35099)">
      <g
         transform="scale(1.0000352,0.99996479)"
         style="font-size:24.02173424px;font-style:normal;font-variant:normal;font-weight:normal;font-stretch:normal;line-height:125%;letter-spacing:0px;word-spacing:0px;fill:#000000;fill-opacity:1;stroke:none;font-family:Aller;-inkscape-font-specification:Aller"
         id="text2985">
        <path
           d="m 116.52709,713.38652 c 0.40036,-0.0801 0.96087,-0.14412 1.68153,-0.19218 0.72064,-0.048 1.4493,-0.072 2.18597,-0.0721 0.91282,10e-6 1.74558,0.0801 2.49826,0.24021 0.75268,0.16017 1.39325,0.4244 1.92174,0.79272 0.54448,0.35234 0.96086,0.81676 1.24913,1.39326 0.30427,0.56052 0.4564,1.24915 0.45642,2.06587 -2e-5,0.49646 -0.0801,0.96088 -0.24022,1.39326 -0.14414,0.41639 -0.34432,0.79273 -0.60054,1.12902 -0.25625,0.3203 -0.55252,0.59255 -0.88881,0.81674 -0.33631,0.2082 -0.68062,0.36034 -1.03293,0.45641 0.44839,0.0481 0.8968,0.16817 1.34521,0.36033 0.46441,0.19218 0.88079,0.46443 1.24913,0.81674 0.36832,0.35233 0.66459,0.80073 0.88881,1.34522 0.2402,0.52848 0.36031,1.17707 0.36032,1.94576 -1e-5,0.92884 -0.18418,1.72156 -0.5525,2.37815 -0.36834,0.64058 -0.8728,1.16105 -1.51337,1.56141 -0.62457,0.40036 -1.36924,0.68862 -2.23402,0.86478 -0.84877,0.17616 -1.7616,0.26424 -2.73847,0.26424 -0.60856,0 -1.27316,-0.032 -1.99381,-0.0961 -0.72065,-0.048 -1.40127,-0.11211 -2.04185,-0.19218 l 0,-17.27162 m 2.4262,15.37391 c 0.2242,0.032 0.50445,0.056 0.84076,0.0721 0.35231,0.016 0.69662,0.024 1.03293,0.024 0.57652,0 1.113,-0.048 1.60946,-0.14413 0.51246,-0.0961 0.96086,-0.25623 1.34522,-0.48043 0.38434,-0.24022 0.68861,-0.5525 0.91282,-0.93685 0.2242,-0.40036 0.3363,-0.90482 0.33631,-1.51337 -1e-5,-0.59253 -0.10411,-1.08898 -0.31228,-1.48935 -0.2082,-0.41637 -0.49646,-0.74466 -0.86479,-0.98489 -0.35232,-0.25622 -0.77671,-0.43238 -1.27315,-0.52848 -0.49646,-0.11209 -1.03294,-0.16814 -1.60945,-0.16815 l -2.01783,0 0,6.14957 m 1.75359,-8.16739 c 1.08897,10e-6 1.92173,-0.2322 2.49826,-0.69663 0.57651,-0.48043 0.86477,-1.19307 0.86478,-2.13794 -1e-5,-0.91281 -0.31229,-1.59343 -0.93685,-2.04185 -0.60856,-0.44839 -1.44131,-0.67259 -2.49826,-0.67261 -0.32029,2e-5 -0.63258,0.008 -0.93685,0.024 -0.28826,0.016 -0.53649,0.04 -0.74467,0.0721 l 0,5.45294 1.75359,0"
           style="fill:#ff6600"
           id="path3033" />
        <path
           d="m 130.81289,713.38652 c 0.19218,-0.032 0.39236,-0.056 0.60055,-0.0721 0.20818,-0.016 0.41637,-0.024 0.62456,-0.024 0.20819,2e-5 0.41638,0.008 0.62457,0.024 0.20818,0.016 0.40836,0.0401 0.60054,0.0721 l 0,17.27162 c -0.19218,0.032 -0.39236,0.0561 -0.60054,0.0721 -0.19218,0.016 -0.40037,0.024 -0.62457,0.024 -0.20819,0 -0.42438,-0.008 -0.64858,-0.024 -0.20819,-0.016 -0.40037,-0.04 -0.57653,-0.0721 l 0,-17.27162"
           style="fill:#ff6600"
           id="path3035" />
        <path
           d="m 140.45387,715.52445 -4.49207,0 c -0.032,-0.16013 -0.056,-0.33629 -0.0721,-0.52848 -0.016,-0.19216 -0.024,-0.37632 -0.024,-0.5525 0,-0.17614 0.008,-0.3523 0.024,-0.52848 0.016,-0.19215 0.04,-0.36831 0.0721,-0.52847 l 11.43435,0 c 0.032,0.16016 0.056,0.32831 0.0721,0.50445 0.016,0.17618 0.024,0.35234 0.024,0.52848 -2e-5,0.17618 -0.008,0.36835 -0.024,0.57652 -0.016,0.19219 -0.04,0.36835 -0.0721,0.52848 l -4.49207,0 0,15.13369 c -0.36834,0.048 -0.7687,0.0721 -1.20108,0.0721 -0.44841,0 -0.86479,-0.024 -1.24913,-0.0721 l 0,-15.13369"
           style="fill:#ff6600"
           id="path3037" />
        <path
           d="m 160.23051,728.13586 c 0.35231,0.68862 0.57651,1.35323 0.67261,1.9938 -0.67262,0.28826 -1.36124,0.49645 -2.06587,0.62457 -0.70465,0.12811 -1.46534,0.19217 -2.28206,0.19217 -1.24914,0 -2.37816,-0.20018 -3.38707,-0.60054 -0.9929,-0.41638 -1.83366,-1.0009 -2.52228,-1.75359 -0.68863,-0.76869 -1.2171,-1.69753 -1.58544,-2.78652 -0.36833,-1.08898 -0.5525,-2.31408 -0.5525,-3.67532 0,-1.37724 0.18417,-2.61836 0.5525,-3.72337 0.36834,-1.121 0.89681,-2.07386 1.58544,-2.85859 0.68862,-0.78469 1.52938,-1.38524 2.52228,-1.80163 0.99289,-0.43237 2.1059,-0.64857 3.33902,-0.64859 0.91282,2e-5 1.69753,0.0641 2.35413,0.19218 0.65658,0.12813 1.24111,0.28027 1.75359,0.45641 -0.032,0.36835 -0.10411,0.71266 -0.2162,1.03294 -0.0961,0.30429 -0.21621,0.63258 -0.36032,0.98489 -0.24023,-0.0801 -0.47244,-0.15213 -0.69663,-0.2162 -0.22422,-0.064 -0.46444,-0.12009 -0.72066,-0.16815 -0.25624,-0.048 -0.5445,-0.0801 -0.86478,-0.0961 -0.30428,-0.032 -0.6566,-0.048 -1.05695,-0.048 -1.74559,1e-5 -3.10682,0.59255 -4.0837,1.77761 -0.96087,1.18508 -1.44131,2.89062 -1.4413,5.11663 -1e-5,1.13703 0.13612,2.12192 0.40837,2.95467 0.27224,0.83276 0.65659,1.52138 1.15304,2.06587 0.49644,0.54449 1.08898,0.95286 1.77761,1.22511 0.70463,0.27225 1.48934,0.40837 2.35413,0.40837 0.6726,0 1.28115,-0.0561 1.82565,-0.16816 0.54448,-0.11209 1.05694,-0.27224 1.53739,-0.48043"
           style="fill:#ff6600"
           id="path3039" />
        <path
           d="m 170.12146,730.9464 c -1.24914,0 -2.33011,-0.21619 -3.24293,-0.64858 -0.91283,-0.44841 -1.67352,-1.06497 -2.28207,-1.84968 -0.59254,-0.80072 -1.04094,-1.74557 -1.34522,-2.83456 -0.28826,-1.08898 -0.43239,-2.28206 -0.43239,-3.57924 0,-1.29716 0.14413,-2.49024 0.43239,-3.57924 0.30428,-1.08897 0.75268,-2.02582 1.34522,-2.81054 0.60855,-0.80071 1.36924,-1.42527 2.28207,-1.8737 0.91282,-0.44839 1.99379,-0.67259 3.24293,-0.67261 1.24912,2e-5 2.3301,0.22422 3.24293,0.67261 0.91282,0.44843 1.6655,1.07299 2.25805,1.8737 0.60853,0.78472 1.05694,1.72157 1.34521,2.81054 0.28825,1.089 0.43238,2.28208 0.4324,3.57924 -2e-5,1.29718 -0.14415,2.49026 -0.4324,3.57924 -0.28827,1.08899 -0.73668,2.03384 -1.34521,2.83456 -0.59255,0.78471 -1.34523,1.40127 -2.25805,1.84968 -0.91283,0.43239 -1.99381,0.64858 -3.24293,0.64858 m 0,-2.11391 c 0.80071,0 1.48934,-0.15214 2.06587,-0.45641 0.59252,-0.32029 1.08097,-0.7767 1.46532,-1.36924 0.38434,-0.59253 0.6726,-1.30518 0.86479,-2.13794 0.19216,-0.83274 0.28824,-1.7776 0.28826,-2.83456 -2e-5,-1.04093 -0.0961,-1.97778 -0.28826,-2.81054 -0.19219,-0.84876 -0.48045,-1.5614 -0.86479,-2.13794 -0.38435,-0.59252 -0.8728,-1.04092 -1.46532,-1.34521 -0.57653,-0.32028 -1.26516,-0.48042 -2.06587,-0.48044 -0.80073,2e-5 -1.49736,0.16016 -2.08989,0.48044 -0.57653,0.30429 -1.05696,0.75269 -1.4413,1.34521 -0.38436,0.57654 -0.67262,1.28918 -0.86479,2.13794 -0.19218,0.83276 -0.28826,1.76961 -0.28826,2.81054 0,1.05696 0.0961,2.00182 0.28826,2.83456 0.19217,0.83276 0.48043,1.54541 0.86479,2.13794 0.38434,0.59254 0.86477,1.04895 1.4413,1.36924 0.59253,0.30427 1.28916,0.45641 2.08989,0.45641"
           style="fill:#ff6600"
           id="path3041" />
        <path
           d="m 180.96765,713.38652 c 0.19217,-0.032 0.39235,-0.056 0.60054,-0.0721 0.20819,-0.016 0.41638,-0.024 0.62457,-0.024 0.20818,2e-5 0.41637,0.008 0.62456,0.024 0.20819,0.016 0.40837,0.0401 0.60055,0.0721 l 0,17.27162 c -0.19218,0.032 -0.39236,0.0561 -0.60055,0.0721 -0.19217,0.016 -0.40036,0.024 -0.62456,0.024 -0.20819,0 -0.42439,-0.008 -0.64859,-0.024 -0.20819,-0.016 -0.40036,-0.04 -0.57652,-0.0721 l 0,-17.27162"
           style="fill:#ff6600"
           id="path3043" />
        <path
           d="m 187.62993,713.38652 c 0.17615,-0.032 0.36032,-0.056 0.5525,-0.0721 0.20818,-0.016 0.40036,-0.024 0.57652,-0.024 0.17615,2e-5 0.36032,0.008 0.5525,0.024 0.20818,0.016 0.40036,0.0401 0.57652,0.0721 l 7.5188,12.97173 0,-12.97173 c 0.19216,-0.032 0.39235,-0.056 0.60055,-0.0721 0.20817,-0.016 0.41636,-0.024 0.62456,-0.024 0.17615,2e-5 0.36031,0.008 0.5525,0.024 0.19216,0.016 0.37633,0.0401 0.5525,0.0721 l 0,17.27162 c -0.17617,0.032 -0.36835,0.0561 -0.57652,0.0721 -0.19219,0.016 -0.37635,0.024 -0.5525,0.024 -0.17617,0 -0.36835,-0.008 -0.57652,-0.024 -0.19219,-0.016 -0.37636,-0.04 -0.5525,-0.0721 l -7.54283,-12.89967 0,12.89967 c -0.17616,0.032 -0.36833,0.0561 -0.57652,0.0721 -0.19218,0.016 -0.38435,0.024 -0.57652,0.024 -0.20819,0 -0.41638,-0.008 -0.62457,-0.024 -0.19217,-0.016 -0.36833,-0.04 -0.52847,-0.0721 l 0,-17.27162"
           style="fill:#ff6600"
           id="path3045" />
        <path
           d="m 203.98122,713.38652 c 0.54449,-0.0641 1.20108,-0.1201 1.96978,-0.16816 0.76869,-0.064 1.52137,-0.0961 2.25804,-0.0961 3.02673,10e-6 5.28477,0.76871 6.77413,2.30608 1.50535,1.53741 2.25803,3.7474 2.25805,6.63 -2e-5,3.01073 -0.76871,5.24475 -2.30609,6.70207 -1.52139,1.45731 -3.79544,2.18597 -6.82217,2.18597 -0.75269,0 -1.49736,-0.032 -2.23402,-0.0961 -0.73667,-0.048 -1.36925,-0.11211 -1.89772,-0.19218 l 0,-17.27162 m 2.45022,15.2538 c 0.22419,0.032 0.49644,0.0641 0.81673,0.0961 0.3363,0.016 0.68862,0.024 1.05696,0.024 0.94485,0 1.80162,-0.1041 2.57033,-0.31229 0.7847,-0.2242 1.4573,-0.59253 2.01782,-1.105 0.5605,-0.51246 0.99289,-1.20108 1.29718,-2.06587 0.30426,-0.88079 0.4564,-1.97778 0.45641,-3.29097 -1e-5,-1.20108 -0.15215,-2.22601 -0.45641,-3.07479 -0.30429,-0.84875 -0.73668,-1.53737 -1.29718,-2.06587 -0.5445,-0.54447 -1.20109,-0.93683 -1.96978,-1.17706 -0.7687,-0.2402 -1.61747,-0.36031 -2.5463,-0.36033 -0.30429,2e-5 -0.64059,0.008 -1.00892,0.024 -0.35232,10e-6 -0.6646,0.024 -0.93684,0.0721 l 0,13.23598"
           style="fill:#ffffff"
           id="path3047" />
        <path
           d="m 228.64741,726.67053 -6.55793,0 -1.17706,3.98761 c -0.20819,0.032 -0.41638,0.0561 -0.62457,0.0721 -0.20819,0.016 -0.41638,0.024 -0.62456,0.024 -0.22421,0 -0.44841,-0.008 -0.67261,-0.024 -0.20819,-0.016 -0.40037,-0.04 -0.57652,-0.0721 l 5.62108,-17.27162 c 0.20818,-0.032 0.43239,-0.056 0.67261,-0.0721 0.24021,-0.016 0.48843,-0.024 0.74467,-0.024 0.2242,2e-5 0.45641,0.008 0.69663,0.024 0.24021,0.016 0.47242,0.0401 0.69663,0.0721 l 5.59707,17.27162 c -0.19219,0.032 -0.40838,0.0561 -0.64859,0.0721 -0.24023,0.016 -0.47244,0.024 -0.69663,0.024 -0.2082,0 -0.4244,-0.008 -0.64859,-0.024 -0.2082,-0.016 -0.40838,-0.04 -0.60054,-0.0721 l -1.20109,-3.98761 m -5.90934,-2.13793 5.26076,0 -2.64239,-8.81598 -2.61837,8.81598"
           style="fill:#ffffff"
           id="path3049" />
        <path
           d="m 235.01768,713.36249 c 0.35231,-0.032 0.6726,-0.064 0.96087,-0.0961 0.28825,-0.032 0.56851,-0.056 0.84076,-0.0721 0.28825,-0.032 0.58452,-0.056 0.8888,-0.0721 0.30427,-0.016 0.64057,-0.024 1.00891,-0.024 0.81674,2e-5 1.62547,0.0801 2.4262,0.24022 0.80071,0.16016 1.51336,0.44042 2.13793,0.84076 0.62456,0.40038 1.12901,0.94487 1.51337,1.63348 0.40035,0.67262 0.60053,1.5294 0.60055,2.57033 -2e-5,0.62457 -0.10411,1.19309 -0.31229,1.70554 -0.2082,0.51247 -0.47244,0.96889 -0.79271,1.36924 -0.3203,0.40037 -0.68864,0.75269 -1.105,1.05695 -0.40038,0.28827 -0.79273,0.52849 -1.17707,0.72066 l -0.28826,0.14413 5.02054,7.27858 c -0.4324,0.048 -0.92084,0.0721 -1.46532,0.0721 -0.43241,0 -0.8648,-0.024 -1.29718,-0.0721 l -5.525,-7.99924 0,-0.0961 0.19218,-0.048 c 0.43238,-0.11209 0.8888,-0.26423 1.36924,-0.45641 0.48042,-0.19216 0.92082,-0.44039 1.32119,-0.74467 0.41637,-0.32028 0.76068,-0.69662 1.03294,-1.12902 0.27223,-0.4484 0.40836,-0.98488 0.40837,-1.60946 -1e-5,-1.15303 -0.34432,-2.0098 -1.03294,-2.57033 -0.67261,-0.56049 -1.58544,-0.84074 -2.73848,-0.84076 -0.27225,2e-5 -0.52848,0.008 -0.76869,0.024 -0.22421,0.016 -0.48044,0.0401 -0.7687,0.0721 l 0,15.39793 c -0.17616,0.016 -0.37634,0.032 -0.60054,0.048 -0.20819,0.016 -0.40837,0.024 -0.60054,0.024 -0.19218,0 -0.40037,-0.008 -0.62457,-0.024 -0.2242,0 -0.43239,-0.016 -0.62456,-0.048 l 0,-17.29565"
           style="fill:#ffffff"
           id="path3051" />
        <path
           d="m 252.49724,721.89021 5.54903,-8.50369 c 0.22419,-0.032 0.44038,-0.056 0.64858,-0.0721 0.22419,-0.016 0.42437,-0.024 0.60055,-0.024 0.20817,2e-5 0.43237,0.008 0.6726,0.024 0.24021,0.016 0.48843,0.0401 0.74468,0.0721 l -5.47696,8.28749 6.17359,8.98413 c -0.25625,0.032 -0.51248,0.0561 -0.7687,0.0721 -0.24023,0.016 -0.47244,0.024 -0.69663,0.024 -0.19218,0 -0.40037,-0.008 -0.62456,-0.024 -0.22422,-0.016 -0.45643,-0.04 -0.69663,-0.0721 l -6.12555,-8.76793 m -3.17086,-8.50369 c 0.19217,-0.032 0.39235,-0.056 0.60054,-0.0721 0.20818,-0.016 0.41637,-0.024 0.62456,-0.024 0.20819,2e-5 0.41638,0.008 0.62457,0.024 0.20818,0.016 0.40836,0.0401 0.60054,0.0721 l 0,17.27162 c -0.19218,0.032 -0.39236,0.0561 -0.60054,0.0721 -0.20819,0.016 -0.41638,0.024 -0.62457,0.024 -0.2242,0 -0.4404,-0.008 -0.64858,-0.024 -0.20819,-0.016 -0.40037,-0.04 -0.57652,-0.0721 l 0,-17.27162"
           style="fill:#ffffff"
           id="path3053" />
      </g>
      <g
         transform="matrix(0.418913,0,0,0.418913,16.434749,515.08743)"
         id="g4476">
        <path
           inkscape:connector-curvature="0"
           id="path4478"
           transform="translate(0,308.2677)"
           d="m 176.40625,155.875 c -0.11881,6.58122 -1.71113,12.79729 -4.40625,18.375 6.39134,0.47403 11.4375,5.80048 11.4375,12.3125 0,6.54316 -5.09644,11.91425 -11.53125,12.34375 2.74038,5.57424 4.34428,11.80848 4.5,18.40625 14.81228,-2.38925 26.125,-15.26857 26.125,-30.75 0,-15.47949 -11.31837,-28.29918 -26.125,-30.6875 z"
           style="color:#000000;fill:#ffffff;stroke:none;stroke-width:0.50000000000000000;marker:none;visibility:visible;display:inline;overflow:visible;enable-background:accumulate" />
        <path
           inkscape:connector-curvature="0"
           id="path4480"
           transform="translate(0,308.2677)"
           d="m 158.21875,190.8125 c -6.74613,4.91842 -14.93225,7.96852 -23.8125,8.40625 9.33687,1.07443 16.5777,8.90117 16.8125,18.46875 l 18.625,0 c 0,-10.59786 -4.48139,-20.13262 -11.625,-26.875 z"
           style="color:#000000;fill:#ff6600;stroke:none;stroke-width:0.5;marker:none;visibility:visible;display:inline;overflow:visible;enable-background:accumulate" />
        <path
           inkscape:connector-curvature="0"
           id="path4482"
           transform="translate(0,308.2677)"
           d="m 151.21875,155.75 c -0.24379,10.09381 -8.30465,18.22231 -18.375,18.5625 l 0,18.4375 c 20.4249,0 37,-16.57654 37,-37 l -18.625,0 z"
           style="color:#000000;fill:#ff6600;stroke:none;stroke-width:0.5;marker:none;visibility:visible;display:inline;overflow:visible;enable-background:accumulate" />
      </g>
    </g>
  </g>
</svg>
