<?xml version="1.0" encoding="UTF-8" standalone="no"?>
<!-- Created with Inkscape (http://www.inkscape.org/) -->

<svg
   xmlns:dc="http://purl.org/dc/elements/1.1/"
   xmlns:cc="http://creativecommons.org/ns#"
   xmlns:rdf="http://www.w3.org/1999/02/22-rdf-syntax-ns#"
   xmlns:svg="http://www.w3.org/2000/svg"
   xmlns="http://www.w3.org/2000/svg"
   xmlns:sodipodi="http://sodipodi.sourceforge.net/DTD/sodipodi-0.dtd"
   xmlns:inkscape="http://www.inkscape.org/namespaces/inkscape"
   width="512"
   height="512"
   id="svg5104"
   version="1.1"
   inkscape:version="0.48.4 r9939"
   sodipodi:docname="bitcoindark-logo.svg"
   inkscape:export-filename="/home/gabo/Dokumenty/Graphics/btcd/bitcoindark-logo.png"
   inkscape:export-xdpi="90"
   inkscape:export-ydpi="90">
  <defs
     id="defs5106" />
  <sodipodi:namedview
     id="base"
     pagecolor="#ffffff"
     bordercolor="#666666"
     borderopacity="1.0"
     inkscape:pageopacity="0.0"
     inkscape:pageshadow="2"
     inkscape:zoom="0.49497475"
     inkscape:cx="1115.5004"
     inkscape:cy="274.65544"
     inkscape:document-units="px"
     inkscape:current-layer="layer1"
     showgrid="false"
     inkscape:window-width="1855"
     inkscape:window-height="1176"
     inkscape:window-x="65"
     inkscape:window-y="24"
     inkscape:window-maximized="1" />
  <metadata
     id="metadata5109">
    <rdf:RDF>
      <cc:Work
         rdf:about="">
        <dc:format>image/svg+xml</dc:format>
        <dc:type
           rdf:resource="http://purl.org/dc/dcmitype/StillImage" />
        <dc:title></dc:title>
      </cc:Work>
    </rdf:RDF>
  </metadata>
  <g
     inkscape:label="Vrstva 1"
     inkscape:groupmode="layer"
     id="layer1"
     transform="translate(0,-540.36218)">
    <g
       transform="scale(1.0000352,0.99996482)"
       style="font-size:55.03038025px;font-style:normal;font-variant:normal;font-weight:normal;font-stretch:normal;line-height:125%;letter-spacing:0px;word-spacing:0px;fill:#000000;fill-opacity:1;stroke:none;font-family:Aller;-inkscape-font-specification:Aller"
       id="text4230">
      <path
         d="m 89.716002,887.45855 c 0.917167,-0.1834 2.201208,-0.33015 3.852127,-0.44025 1.650901,-0.11002 3.320154,-0.16505 5.007764,-0.16509 2.091137,4e-5 3.998857,0.18348 5.723157,0.55031 1.72427,0.36691 3.19174,0.97224 4.40243,1.816 1.24733,0.80715 2.20119,1.87107 2.86158,3.19176 0.69703,1.28408 1.04555,2.86161 1.04558,4.73261 -3e-5,1.13733 -0.18346,2.20125 -0.5503,3.19177 -0.33021,0.95388 -0.7888,1.81602 -1.37576,2.58642 -0.58702,0.73377 -1.26573,1.35744 -2.03613,1.87104 -0.77045,0.47695 -1.55921,0.82547 -2.3663,1.04557 1.02721,0.11009 2.05444,0.38524 3.0817,0.82546 1.06389,0.44026 2.01775,1.06394 2.86158,1.87103 0.84377,0.80713 1.52248,1.83437 2.03612,3.0817 0.55028,1.21069 0.82543,2.69651 0.82546,4.45746 -3e-5,2.12786 -0.42193,3.94386 -1.2657,5.44801 -0.84383,1.46748 -1.99947,2.65981 -3.46692,3.57698 -1.43081,0.91717 -3.13675,1.57754 -5.11782,1.98109 -1.94443,0.40356 -4.03558,0.60533 -6.273464,0.60534 -1.394116,-10e-6 -2.916621,-0.0734 -4.567521,-0.22013 -1.65092,-0.11006 -3.210112,-0.2568 -4.677583,-0.44024 l 0,-39.56684 m 5.558069,35.21944 c 0.513606,0.0734 1.155626,0.12841 1.926063,0.16509 0.807099,0.0367 1.595867,0.055 2.366306,0.055 1.32071,10e-6 2.54972,-0.11005 3.68704,-0.33018 1.17396,-0.22012 2.20119,-0.58699 3.0817,-1.10061 0.88046,-0.5503 1.57751,-1.26569 2.09115,-2.14618 0.51359,-0.91717 0.7704,-2.0728 0.77043,-3.46692 -3e-5,-1.3574 -0.23849,-2.49469 -0.7154,-3.41188 -0.47695,-0.95384 -1.13732,-1.70593 -1.98109,-2.25625 -0.80713,-0.58697 -1.77934,-0.99052 -2.91661,-1.21066 -1.13731,-0.25679 -2.36632,-0.3852 -3.687037,-0.38522 l -4.622552,0 0,14.08778 m 4.017217,-18.71033 c 2.494692,2e-5 4.402412,-0.53194 5.723162,-1.59588 1.32071,-1.10058 1.98107,-2.73315 1.98109,-4.8977 -2e-5,-2.09113 -0.71541,-3.65032 -2.14618,-4.67759 -1.39412,-1.02719 -3.30184,-1.54081 -5.723163,-1.54085 -0.733752,4e-5 -1.449146,0.0184 -2.146185,0.055 -0.660376,0.0367 -1.229022,0.0918 -1.705941,0.16509 l 0,12.4919 4.017217,0"
         style="fill:#ff6600"
         id="path5355" />
      <path
         d="m 122.44274,887.45855 c 0.44024,-0.0733 0.89882,-0.12837 1.37576,-0.16509 0.47692,-0.0367 0.95385,-0.055 1.43079,-0.055 0.47692,4e-5 0.95385,0.0184 1.43079,0.055 0.47692,0.0367 0.93551,0.0918 1.37576,0.16509 l 0,39.56684 c -0.44025,0.0734 -0.89884,0.1284 -1.37576,0.16509 -0.44025,0.0367 -0.91718,0.055 -1.43079,0.055 -0.47694,0 -0.97221,-0.0183 -1.48582,-0.055 -0.47694,-0.0367 -0.91718,-0.0917 -1.32073,-0.16509 l 0,-39.56684"
         style="fill:#ff6600"
         id="path5357" />
      <path
         d="m 144.52884,892.35625 -10.29068,0 c -0.0734,-0.36683 -0.12841,-0.77039 -0.16509,-1.21067 -0.0367,-0.4402 -0.055,-0.8621 -0.055,-1.2657 0,-0.40351 0.0183,-0.80707 0.055,-1.21066 0.0367,-0.44021 0.0917,-0.84376 0.16509,-1.21067 l 26.19446,0 c 0.0734,0.36691 0.12838,0.75212 0.16509,1.15564 0.0367,0.40359 0.055,0.80715 0.055,1.21066 -3e-5,0.4036 -0.0184,0.84384 -0.055,1.32073 -0.0367,0.44028 -0.0917,0.84384 -0.16509,1.21067 l -10.29068,0 0,34.66914 c -0.84382,0.11006 -1.76099,0.16509 -2.75152,0.16509 -1.02725,0 -1.98111,-0.055 -2.86158,-0.16509 l 0,-34.66914"
         style="fill:#ff6600"
         id="path5359" />
      <path
         d="m 189.83432,921.2472 c 0.80708,1.57754 1.3207,3.10005 1.54085,4.56752 -1.54088,0.66037 -3.11841,1.1373 -4.73261,1.43079 -1.61425,0.2935 -3.35688,0.44024 -5.22789,0.44025 -2.86159,-10e-6 -5.44802,-0.45859 -7.75928,-1.37576 -2.2746,-0.95386 -4.20066,-2.29293 -5.77819,-4.01722 -1.57754,-1.76097 -2.78821,-3.88881 -3.632,-6.38353 -0.84381,-2.49469 -1.26571,-5.30124 -1.2657,-8.41964 -1e-5,-3.15506 0.42189,-5.99829 1.2657,-8.52971 0.84379,-2.56806 2.05446,-4.75093 3.632,-6.54862 1.57753,-1.79762 3.50359,-3.17338 5.77819,-4.12728 2.27457,-0.9905 4.82431,-1.48578 7.64922,-1.48582 2.09113,4e-5 3.88879,0.14679 5.39298,0.44025 1.50414,0.29353 2.84321,0.64206 4.01722,1.04557 -0.0734,0.84384 -0.2385,1.63261 -0.49528,2.36631 -0.22015,0.69709 -0.4953,1.44917 -0.82545,2.25624 -0.55033,-0.1834 -1.08229,-0.34849 -1.59588,-0.49527 -0.51365,-0.14671 -1.06395,-0.27512 -1.65091,-0.38521 -0.58702,-0.11003 -1.24738,-0.1834 -1.9811,-0.22012 -0.69707,-0.0733 -1.50418,-0.11003 -2.42133,-0.11006 -3.9989,3e-5 -7.11728,1.35745 -9.35517,4.07224 -2.20122,2.71487 -3.30183,6.62202 -3.30182,11.72148 -1e-5,2.60478 0.31183,4.86103 0.93552,6.76873 0.62366,1.90773 1.50415,3.48527 2.64145,4.73262 1.13728,1.24736 2.4947,2.18287 4.07225,2.80654 1.61421,0.62369 3.41186,0.93553 5.39298,0.93552 1.54083,10e-6 2.93493,-0.1284 4.18231,-0.38521 1.24733,-0.25681 2.42131,-0.62367 3.52194,-1.10061"
         style="fill:#ff6600"
         id="path5361" />
      <path
         d="m 212.49308,927.68576 c -2.8616,-10e-6 -5.33796,-0.49528 -7.4291,-1.48583 -2.09117,-1.02723 -3.83379,-2.43967 -5.22789,-4.23733 -1.35742,-1.83434 -2.38465,-3.99887 -3.0817,-6.49359 -0.66037,-2.4947 -0.99055,-5.22787 -0.99055,-8.19953 0,-2.97161 0.33018,-5.70479 0.99055,-8.19952 0.69705,-2.49468 1.72428,-4.64087 3.0817,-6.43856 1.3941,-1.83431 3.13672,-3.2651 5.22789,-4.29237 2.09114,-1.02719 4.5675,-1.54081 7.4291,-1.54085 2.86156,4e-5 5.33792,0.51366 7.4291,1.54085 2.09113,1.02727 3.81541,2.45806 5.17286,4.29237 1.39406,1.79769 2.4213,3.94388 3.0817,6.43856 0.66033,2.49473 0.99051,5.22791 0.99054,8.19952 -3e-5,2.97166 -0.33021,5.70483 -0.99054,8.19953 -0.6604,2.49472 -1.68764,4.65925 -3.0817,6.49359 -1.35745,1.79766 -3.08173,3.2101 -5.17286,4.23733 -2.09118,0.99055 -4.56754,1.48582 -7.4291,1.48583 m 0,-4.84268 c 1.83432,10e-6 3.41186,-0.34852 4.73261,-1.04558 1.35739,-0.73373 2.47634,-1.7793 3.35685,-3.13673 0.88046,-1.3574 1.54083,-2.98997 1.9811,-4.8977 0.44021,-1.90771 0.66033,-4.07223 0.66036,-6.49359 -3e-5,-2.38462 -0.22015,-4.53081 -0.66036,-6.43855 -0.44027,-1.94438 -1.10064,-3.57695 -1.9811,-4.8977 -0.88051,-1.35739 -1.99946,-2.38462 -3.35685,-3.08171 -1.32075,-0.7337 -2.89829,-1.10057 -4.73261,-1.1006 -1.83437,3e-5 -3.43024,0.3669 -4.78764,1.1006 -1.32075,0.69709 -2.42135,1.72432 -3.30183,3.08171 -0.88049,1.32075 -1.54086,2.95332 -1.98109,4.8977 -0.44025,1.90774 -0.66037,4.05393 -0.66037,6.43855 0,2.42136 0.22012,4.58588 0.66037,6.49359 0.44023,1.90773 1.1006,3.5403 1.98109,4.8977 0.88048,1.35743 1.98108,2.403 3.30183,3.13673 1.3574,0.69706 2.95327,1.04559 4.78764,1.04558"
         style="fill:#ff6600"
         id="path5363" />
      <path
         d="m 237.34016,887.45855 c 0.44023,-0.0733 0.89882,-0.12837 1.37576,-0.16509 0.47692,-0.0367 0.95385,-0.055 1.43079,-0.055 0.47692,4e-5 0.95385,0.0184 1.43079,0.055 0.47692,0.0367 0.9355,0.0918 1.37575,0.16509 l 0,39.56684 c -0.44025,0.0734 -0.89883,0.1284 -1.37575,0.16509 -0.44026,0.0367 -0.91719,0.055 -1.43079,0.055 -0.47694,0 -0.97221,-0.0183 -1.48583,-0.055 -0.47693,-0.0367 -0.91717,-0.0917 -1.32072,-0.16509 l 0,-39.56684"
         style="fill:#ff6600"
         id="path5365" />
      <path
         d="m 252.60248,887.45855 c 0.40356,-0.0733 0.82545,-0.12837 1.2657,-0.16509 0.47693,-0.0367 0.91717,-0.055 1.32073,-0.055 0.40355,4e-5 0.82545,0.0184 1.2657,0.055 0.47692,0.0367 0.91716,0.0918 1.32073,0.16509 l 17.22451,29.7164 0,-29.7164 c 0.44021,-0.0733 0.8988,-0.12837 1.37576,-0.16509 0.4769,-0.0367 0.95383,-0.055 1.43079,-0.055 0.40352,4e-5 0.82542,0.0184 1.2657,0.055 0.44021,0.0367 0.86211,0.0918 1.2657,0.16509 l 0,39.56684 c -0.40359,0.0734 -0.84383,0.1284 -1.32073,0.16509 -0.44028,0.0367 -0.86218,0.055 -1.2657,0.055 -0.40359,0 -0.84383,-0.0183 -1.32073,-0.055 -0.44027,-0.0367 -0.86217,-0.0917 -1.2657,-0.16509 l -17.27954,-29.55131 0,29.55131 c -0.40356,0.0734 -0.84381,0.1284 -1.32073,0.16509 -0.44025,0.0367 -0.88049,0.055 -1.32073,0.055 -0.47693,0 -0.95386,-0.0183 -1.43079,-0.055 -0.44025,-0.0367 -0.8438,-0.0917 -1.21067,-0.16509 l 0,-39.56684"
         style="fill:#ff6600"
         id="path5367" />
      <path
         d="m 290.06097,887.45855 c 1.24735,-0.14671 2.75151,-0.27511 4.51249,-0.38522 1.76097,-0.1467 3.48525,-0.22008 5.17286,-0.22012 6.93381,4e-5 12.10666,1.76101 15.51857,5.28292 3.44853,3.52198 5.17282,8.58477 5.17285,15.18838 -3e-5,6.89716 -1.761,12.01498 -5.28291,15.35348 -3.48529,3.33851 -8.69483,5.00776 -15.62863,5.00777 -1.7243,-10e-6 -3.43024,-0.0734 -5.11783,-0.22013 -1.6876,-0.11006 -3.13673,-0.2568 -4.3474,-0.44024 l 0,-39.56684 m 5.6131,34.94429 c 0.51361,0.0734 1.13728,0.14675 1.87103,0.22012 0.77042,0.0367 1.57753,0.055 2.42134,0.055 2.16451,0 4.12726,-0.23846 5.88825,-0.71539 1.79764,-0.51362 3.33849,-1.35741 4.62255,-2.5314 1.28402,-1.17397 2.27457,-2.75151 2.97164,-4.73261 0.69703,-2.01777 1.04555,-4.53082 1.04558,-7.53917 -3e-5,-2.75149 -0.34855,-5.09945 -1.04558,-7.04389 -0.69707,-1.94437 -1.68762,-3.52191 -2.97164,-4.73261 -1.24738,-1.24732 -2.75154,-2.14615 -4.51249,-2.69649 -1.76099,-0.55027 -3.70539,-0.82542 -5.83322,-0.82545 -0.69706,3e-5 -1.46749,0.0184 -2.31127,0.055 -0.80713,3e-5 -1.52252,0.0551 -2.14619,0.16509 l 0,30.32174"
         style=""
         id="path5369" />
      <path
         d="m 346.56772,917.89035 -15.02329,0 -2.69649,9.13504 c -0.47694,0.0734 -0.95387,0.1284 -1.43079,0.16509 -0.47694,0.0367 -0.95387,0.055 -1.43079,0.055 -0.51362,0 -1.02724,-0.0183 -1.54085,-0.055 -0.47693,-0.0367 -0.91718,-0.0917 -1.32073,-0.16509 l 12.87711,-39.56684 c 0.47691,-0.0733 0.99053,-0.12837 1.54085,-0.16509 0.55029,-0.0367 1.11893,-0.055 1.70594,-0.055 0.5136,4e-5 1.04556,0.0184 1.59588,0.055 0.55029,0.0367 1.08225,0.0918 1.59588,0.16509 l 12.82208,39.56684 c -0.44027,0.0734 -0.93555,0.1284 -1.48582,0.16509 -0.55033,0.0367 -1.08229,0.055 -1.59588,0.055 -0.47696,0 -0.97223,-0.0183 -1.48582,-0.055 -0.47696,-0.0367 -0.93554,-0.0917 -1.37576,-0.16509 l -2.75152,-9.13504 m -13.53747,-4.89771 12.05165,0 -6.05334,-20.19615 -5.99831,20.19615"
         style=""
         id="path5371" />
      <path
         d="m 361.16108,887.40352 c 0.8071,-0.0733 1.54084,-0.14671 2.20121,-0.22012 0.66036,-0.0733 1.30238,-0.12837 1.92607,-0.1651 0.66035,-0.0733 1.33906,-0.12836 2.03612,-0.16509 0.69704,-0.0366 1.46746,-0.055 2.31128,-0.055 1.87101,4e-5 3.7237,0.18348 5.55806,0.55031 1.83433,0.3669 3.4669,1.00893 4.89771,1.92606 1.43076,0.91721 2.5864,2.16456 3.46691,3.74207 0.91715,1.54088 1.37573,3.50363 1.37576,5.88825 -3e-5,1.43081 -0.23849,2.7332 -0.71539,3.90715 -0.47696,1.17401 -1.08229,2.21958 -1.81601,3.13673 -0.73376,0.9172 -1.57756,1.72431 -2.53139,2.42134 -0.9172,0.66038 -1.81603,1.21069 -2.69649,1.65091 l -0.66037,0.33019 11.50135,16.6742 c -0.99057,0.11006 -2.10952,0.16509 -3.35685,0.16509 -0.99057,0 -1.98112,-0.055 -2.97164,-0.16509 l -12.65699,-18.32512 0,-0.22012 0.44025,-0.11006 c 0.99053,-0.25679 2.0361,-0.60531 3.13673,-1.04558 1.10059,-0.44022 2.10948,-1.00887 3.02667,-1.70594 0.95384,-0.73371 1.74261,-1.59586 2.3663,-2.58643 0.62366,-1.0272 0.9355,-2.25621 0.93552,-3.68703 -2e-5,-2.64143 -0.78879,-4.60418 -2.36631,-5.88825 -1.54087,-1.28401 -3.63202,-1.92603 -6.27346,-1.92606 -0.62369,3e-5 -1.21068,0.0184 -1.76097,0.055 -0.51363,0.0367 -1.10062,0.0918 -1.76097,0.16509 l 0,35.27447 c -0.40357,0.0367 -0.86216,0.0734 -1.37576,0.11006 -0.47694,0.0367 -0.93553,0.055 -1.37576,0.055 -0.44025,0 -0.91718,-0.0183 -1.43079,-0.055 -0.51363,0 -0.99055,-0.0367 -1.43079,-0.11006 l 0,-39.62187"
         style=""
         id="path5373" />
      <path
         d="m 401.20428,906.9393 12.71202,-19.48075 c 0.51359,-0.0733 1.00886,-0.12837 1.48582,-0.16509 0.51359,-0.0367 0.97217,-0.055 1.37576,-0.055 0.4769,4e-5 0.99051,0.0184 1.54085,0.055 0.55027,0.0367 1.11892,0.0918 1.70594,0.16509 l -12.54693,18.98548 14.14281,20.58136 c -0.58702,0.0734 -1.17401,0.1284 -1.76097,0.16509 -0.55034,0.0367 -1.0823,0.055 -1.59588,0.055 -0.44028,0 -0.9172,-0.0183 -1.43079,-0.055 -0.51365,-0.0367 -1.04561,-0.0917 -1.59588,-0.16509 L 401.20428,906.9393 m -7.26401,-19.48075 c 0.44024,-0.0733 0.89882,-0.12837 1.37576,-0.16509 0.47692,-0.0367 0.95385,-0.055 1.43079,-0.055 0.47692,4e-5 0.95385,0.0184 1.43079,0.055 0.47692,0.0367 0.9355,0.0918 1.37576,0.16509 l 0,39.56684 c -0.44026,0.0734 -0.89884,0.1284 -1.37576,0.16509 -0.47694,0.0367 -0.95387,0.055 -1.43079,0.055 -0.51363,0 -1.0089,-0.0183 -1.48582,-0.055 -0.47694,-0.0367 -0.91718,-0.0917 -1.32073,-0.16509 l 0,-39.56684"
         style=""
         id="path5375" />
    </g>
    <g
       id="g3436"
       transform="matrix(2.2908581,0,0,2.2908581,-127.71762,-398.67922)">
      <path
         inkscape:connector-curvature="0"
         id="path4240"
         transform="translate(0,308.2677)"
         d="m 176.40625,155.875 c -0.11881,6.58122 -1.71113,12.79729 -4.40625,18.375 6.39134,0.47403 11.4375,5.80048 11.4375,12.3125 0,6.54316 -5.09644,11.91425 -11.53125,12.34375 2.74038,5.57424 4.34428,11.80848 4.5,18.40625 14.81228,-2.38925 26.125,-15.26857 26.125,-30.75 0,-15.47949 -11.31837,-28.29918 -26.125,-30.6875 z"
         style="color:#000000;fill:#000000;stroke:none;stroke-width:0.5;marker:none;visibility:visible;display:inline;overflow:visible;enable-background:accumulate" />
      <path
         inkscape:connector-curvature="0"
         id="path4246"
         transform="translate(0,308.2677)"
         d="m 158.21875,190.8125 c -6.74613,4.91842 -14.93225,7.96852 -23.8125,8.40625 9.33687,1.07443 16.5777,8.90117 16.8125,18.46875 l 18.625,0 c 0,-10.59786 -4.48139,-20.13262 -11.625,-26.875 z"
         style="color:#000000;fill:#ff6600;stroke:none;stroke-width:0.5;marker:none;visibility:visible;display:inline;overflow:visible;enable-background:accumulate" />
      <path
         inkscape:connector-curvature="0"
         id="path4252"
         transform="translate(0,308.2677)"
         d="m 151.21875,155.75 c -0.24379,10.09381 -8.30465,18.22231 -18.375,18.5625 l 0,18.4375 c 20.4249,0 37,-16.57654 37,-37 l -18.625,0 z"
         style="color:#000000;fill:#ff6600;stroke:none;stroke-width:0.5;marker:none;visibility:visible;display:inline;overflow:visible;enable-background:accumulate" />
    </g>
  </g>
</svg>
