<?xml version="1.0" encoding="UTF-8" standalone="no"?>
<!-- Created with Inkscape (http://www.inkscape.org/) -->

<svg
   xmlns:dc="http://purl.org/dc/elements/1.1/"
   xmlns:cc="http://creativecommons.org/ns#"
   xmlns:rdf="http://www.w3.org/1999/02/22-rdf-syntax-ns#"
   xmlns:svg="http://www.w3.org/2000/svg"
   xmlns="http://www.w3.org/2000/svg"
   xmlns:sodipodi="http://sodipodi.sourceforge.net/DTD/sodipodi-0.dtd"
   xmlns:inkscape="http://www.inkscape.org/namespaces/inkscape"
   width="128"
   height="128"
   id="svg3226"
   version="1.1"
   inkscape:version="0.48.4 r9939"
   sodipodi:docname="btcd-logo-coin-tertiary.svg">
  <defs
     id="defs3228" />
  <sodipodi:namedview
     id="base"
     pagecolor="#ffffff"
     bordercolor="#666666"
     borderopacity="1.0"
     inkscape:pageopacity="0.0"
     inkscape:pageshadow="2"
     inkscape:zoom="3.959798"
     inkscape:cx="114.44759"
     inkscape:cy="68.452484"
     inkscape:document-units="px"
     inkscape:current-layer="layer1"
     showgrid="false"
     inkscape:window-width="1855"
     inkscape:window-height="1176"
     inkscape:window-x="65"
     inkscape:window-y="24"
     inkscape:window-maximized="1" />
  <metadata
     id="metadata3231">
    <rdf:RDF>
      <cc:Work
         rdf:about="">
        <dc:format>image/svg+xml</dc:format>
        <dc:type
           rdf:resource="http://purl.org/dc/dcmitype/StillImage" />
        <dc:title></dc:title>
      </cc:Work>
    </rdf:RDF>
  </metadata>
  <g
     inkscape:label="Vrstva 1"
     inkscape:groupmode="layer"
     id="layer1"
     transform="translate(0,-924.36218)">
    <g
       id="g3240"
       transform="matrix(1.5,0,0,1.5,-1327.0087,235.06352)">
      <path
         sodipodi:type="arc"
         style="color:#000000;fill:#ff6600;fill-opacity:1;fill-rule:nonzero;stroke:none;stroke-width:1.5189873;marker:none;visibility:visible;display:inline;overflow:visible;enable-background:accumulate"
         id="path3205"
         sodipodi:cx="892.14282"
         sodipodi:cy="232.66591"
         sodipodi:rx="60"
         sodipodi:ry="60"
         d="m 952.14282,232.66591 c 0,33.13708 -26.86291,60 -60,60 -33.13708,0 -60,-26.86292 -60,-60 0,-33.13709 26.86292,-60 60,-60 33.13709,0 60,26.86291 60,60 z"
         transform="matrix(0.66666667,0,0,0.66666667,332.57726,347.0885)" />
      <g
         transform="translate(0.50000448,-0.49999335)"
         id="g3218">
        <path
           style="color:#000000;fill:#ffffff;stroke:none;stroke-width:0.5;marker:none;visibility:visible;display:inline;overflow:visible;enable-background:accumulate"
           d="m 933.09475,480.56906 c -0.0852,4.72195 -1.22772,9.18191 -3.16144,13.18385 4.58572,0.34011 8.20628,4.16178 8.20628,8.83408 0,4.69465 -3.65664,8.54834 -8.27354,8.8565 1.96619,3.99946 3.11697,8.47246 3.2287,13.20628 10.62764,-1.71426 18.74439,-10.95503 18.74439,-22.06278 0,-11.10636 -8.1208,-20.30434 -18.74439,-22.01793 z"
           id="path3209"
           inkscape:connector-curvature="0" />
        <path
           style="color:#000000;fill:#ffffff;stroke:none;stroke-width:0.5;marker:none;visibility:visible;display:inline;overflow:visible;enable-background:accumulate"
           d="m 920.04542,505.63632 c -4.84027,3.52891 -10.71372,5.71732 -17.0852,6.03139 6.6991,0.77089 11.89431,6.38649 12.06278,13.25112 l 13.36323,0 c 0,-7.60384 -3.21535,-14.44493 -8.34081,-19.28251 z"
           id="path3211"
           inkscape:connector-curvature="0" />
        <path
           style="color:#000000;fill:#ffffff;stroke:none;stroke-width:0.5;marker:none;visibility:visible;display:inline;overflow:visible;enable-background:accumulate"
           d="m 915.023,480.47937 c -0.17492,7.24219 -5.9585,13.0743 -13.18386,13.31838 l 0,13.2287 c 14.65464,0 26.54709,-11.89348 26.54709,-26.54708 l -13.36323,0 z"
           id="path3213"
           inkscape:connector-curvature="0" />
      </g>
    </g>
  </g>
</svg>
